# xmcd
#
# Track frame offsets: 
#        150
#        26556
#        43304
#        66722
#        99690
#        120857
#        154372
#        176113
#        205312
#        240854
#        268076
#        268838
#
# Disc length: 4166 seconds
#
# Revision: 0
# Processed by: cddbd v1.5.2PL0 Copyright (c) Steve Scherf et al.
# Submitted via: ExactAudioCopyFreeDBPlugin 1.0
#
DISCID=b310440c
DTITLE=Various Artist - Fehmarn Open Air 1999
DYEAR=1999
DGENRE=Blues
TTITLE0=Slaves to the Rhythm - Rum-Bar
TTITLE1=Blue Magic - Black Magic Woman
TTITLE2=Mr. Morning - Jump Little Grasshopper
TTITLE3=More Experience - Voodoo Chile
TTITLE4=Hamburg Blues Band - Rollin'
TTITLE5=Rockship feat. Inga Rumpf - Friends
TTITLE6=Rockship feat. Inga Rumpf - Superstition
TTITLE7=Julian Sas and Band - Blues for the Lost and Found
TTITLE8=Julian Sas and Band - Driftin' Boogie
TTITLE9=Lack of Limits - The Dutchman's Curse
TTITLE10=Applaus
TTITLE11=Late September Dogs - Talking to the Moon
EXTD=
EXTT0=
EXTT1=
EXTT2=
EXTT3=
EXTT4=
EXTT5=
EXTT6=
EXTT7=
EXTT8=
EXTT9=
EXTT10=
EXTT11=
PLAYORDER=
